<svg width="442" height="208" viewBox="0 0 442 208" fill="none" xmlns="http://www.w3.org/2000/svg">
<path d="M397.844 94.7155C399.116 94.577 400.601 94.6003 401.854 94.7815C413.866 96.1903 417.791 108.789 415.634 119.382C410.991 142.182 382.326 154.54 361.021 153.915C357.331 153.922 353.736 154.087 350.084 153.377C336.646 150.765 332.779 142.227 335.276 129.165C331.636 134.492 328.636 143.547 322.381 146.177C317.214 148.352 315.004 141.477 314.029 137.837C312.934 143.055 305.686 156.78 301.061 159.682C299.714 160.53 298.111 161.01 296.529 160.62C294.901 160.22 293.434 158.972 292.636 157.515C288.864 150.615 295.794 131.902 297.974 124.217C295.859 123.472 294.141 123.052 291.929 122.792C291.769 123.305 291.599 123.81 291.414 124.315C288.846 131.202 282.099 136.627 275.574 139.657C274.396 141.97 273.911 144.485 272.274 146.597C267.956 152.175 260.821 153.727 255.149 149.017C251.806 146.24 251.169 143.847 250.749 139.645C247.341 145.995 244.724 153.982 239.711 159.24C238.37 160.65 236.684 161.992 234.641 161.97C233.342 161.955 232.136 161.382 231.259 160.435C224.791 153.445 234.945 127.647 235.008 118.106L235.007 117.714C229.709 120.822 224.03 131.237 221.328 136.75C220.229 138.992 219.397 141.36 218.325 143.615C217.793 144.732 216.941 146.705 215.677 147.077C214.549 147.41 213.042 147 212.041 146.455C208.319 144.422 215.358 123.815 213.585 119.188C213.425 118.77 213.527 118.907 213.096 118.735C209.033 121.165 201.686 138.752 199.894 143.865C198.946 146.157 198.492 149.137 197.155 151.21C196.337 152.475 191.929 151.66 191.546 150.685C190.11 147.027 191.016 139.49 191.451 135.69C187.105 143.732 174.185 157.91 164.111 150.315C155.517 143.835 159.313 129.615 164.598 122.062C167.701 117.628 175.567 112.973 181.034 117.049C187.464 123.152 179.847 133.14 173.151 135.042C170.439 135.812 169.451 135.857 166.967 135.932C166.849 139.272 166.742 142.11 167.219 145.44C167.787 149.41 171.556 150.447 174.997 149.122C182.444 146.257 188.681 137.657 192.044 130.62C192.992 128.637 192.69 124.36 193.893 122.258C194.351 121.439 195.408 121.336 196.301 121.123C202.242 121.492 200.459 124.475 200.083 128.402C199.885 130.467 197.78 140.065 198.803 141.032C199.428 140.327 199.26 140.072 199.59 139.34C202.631 132.607 206.807 119.654 213.651 115.995C214.798 115.382 215.975 115.51 217.095 115.854C223.947 117.957 218.995 133.94 219.912 135.91L220.193 135.695C221.244 131.485 232.924 109.564 239.484 115.478C244.651 120.135 240.866 128.217 239.896 133.687C239.214 137.517 234.091 156.46 236.857 158.545C240.986 157.815 249.611 136.85 250.999 132.35C251.704 130.06 252.154 128.377 253.646 126.302L253.864 126.005C252.941 121.464 254.156 116.108 258.056 113.271C260.606 111.434 263.791 110.711 266.886 111.268C269.976 111.853 272.696 113.671 274.416 116.304C278.446 122.495 277.976 129.945 276.554 136.85C280.966 135.03 284.226 131.852 286.929 127.932C288.224 126.052 289.161 124 290.669 122.254C282.831 118.26 282.014 111.717 287.771 105.262C296.899 102.606 297.199 107.32 295.659 114.79C295.306 116.501 294.524 118.009 293.729 119.538C296.171 120.584 303.164 121.94 304.161 123.09C306.724 127.522 301.961 135.72 301.234 139.652C300.536 143.43 296.976 155.297 299.394 157.52C304.069 157.212 312.644 137.357 314.114 132.8C317.581 122.039 321.024 110.802 335.006 114.315C335.584 114.925 336.814 116.387 337.501 116.627C337.876 116.223 339.039 114.692 339.346 114.635C346.681 113.298 344.899 118.396 343.936 122.463C342.221 128.912 340.234 138.005 342.951 144.375C347.544 155.142 367.726 152.202 376.746 150.247C379.919 149.56 382.544 149.03 385.444 147.827C396.771 143.122 408.029 135.437 412.534 123.542C416.524 113.818 414.909 101.661 404.299 97.0115C398.639 94.5318 390.544 97.6878 388.504 103.624C387.431 106.739 388.156 110.185 389.644 113.084C389.876 113.229 390.111 113.371 390.346 113.511C398.126 118.11 406.124 110.612 398.676 105.681C397.804 105.102 396.024 106.069 395.624 107.173C395.756 108.278 396.551 108.875 397.354 109.736L397.269 110.255L396.864 110.39C391.739 109.09 394.201 101.9 401.639 105.296C402.759 107.764 403.671 110.899 402.011 113.395C396.976 120.962 387.866 116.687 386.259 109.044C385.576 105.792 386.671 102.788 388.366 100.057C390.601 96.4925 394.004 95.5305 397.844 94.7155Z" fill="#E27B8E"/>
<path d="M262.894 113.485C264.216 113.423 266.254 113.313 267.509 113.699C276.941 116.593 275.641 130.787 273.734 137.91C270.379 138.12 269.146 138.117 265.884 137.255C261.886 135.662 261.319 135.457 259.366 131.65C260.331 128.717 260.431 128.29 262.536 126.03C260.454 122.497 259.616 122.799 255.684 123.267C256.176 117.883 257.019 114.752 262.894 113.485Z" fill="white"/>
<path d="M332.004 116.647C334.921 116.67 335.079 117.451 336.371 119.893C335.254 125.325 328.566 138.095 324.704 141.98C323.986 142.59 323.506 143.112 322.639 143.12C320.329 141.257 322.081 132.417 322.796 129.682C323.611 126.56 326.374 121.397 328.439 118.843C328.864 118.317 331.296 117.033 332.004 116.647Z" fill="white"/>
<path d="M258.226 135.027C258.761 135.28 260.679 136.86 261.331 137.332C265.569 140.392 268.221 140.49 273.221 140.367C271.946 143.12 271.299 144.12 269.414 146.512C267.111 149.237 263.589 150.932 260.931 147.602C257.959 143.877 257.874 139.547 258.226 135.027Z" fill="white"/>
<path d="M177.94 118.914C178.928 118.927 180.526 119.173 180.762 120.33C182.432 128.532 176.305 131.362 170.31 133.767C169.539 133.932 168.329 134.304 167.632 134.092C167.186 132.937 167.664 131.844 168.177 130.784C170.563 125.869 172.926 121.497 177.94 118.914Z" fill="white"/>
<path d="M292.398 107.038C296.891 106.946 293.171 115.649 292.356 117.61L292.103 117.813L291.716 117.604C290.743 114.844 290.676 109.5 292.398 107.038Z" fill="white"/>
<path d="M53.4655 52.253C55.2987 51.9963 59.4442 51.915 61.1825 52.385C79.486 57.3335 83.8867 74.1748 75.0882 89.787C69.5515 99.6115 64.8417 107.83 58.3317 116.662L56.7845 119.041C53.4632 114.694 49.808 108.784 46.8367 104.163C43.1872 98.487 38.328 90.7153 35.8377 84.4645C35.0652 82.4955 34.531 80.4413 34.246 78.3455C32.444 65.6318 40.7125 54.1278 53.4655 52.253Z" fill="#E27B8E"/>
<path d="M55.528 61.416C62.5042 60.7515 68.7325 65.785 69.5467 72.7452C70.361 79.7057 65.4625 86.0405 58.5212 87.0042C53.8965 87.6462 49.2862 85.736 46.471 82.011C43.6557 78.2863 43.0757 73.3298 44.9555 69.0555C46.835 64.7815 50.88 61.8588 55.528 61.416Z" fill="white"/>
<path d="M123.646 126.354C123.813 125.79 123.991 125.227 124.207 124.679C127.423 116.507 135.554 94.4718 144.068 90.9255C145.637 90.272 147.389 90.0573 148.967 90.806C151.638 92.0735 152.659 95.2688 152.997 97.9995C153.779 104.322 152.285 111.249 151.324 117.5C150.593 122.256 150.197 127.052 149.466 131.795C148.09 140.715 144.257 157.612 147.187 166.099C147.557 167.172 148.093 168.29 149.187 168.777C152.114 170.085 154.504 166.962 156.982 166.107C157.422 165.955 157.438 166.075 157.836 166.262C157.945 166.715 158.046 167.065 157.624 167.522C155.82 169.485 154.216 171.195 151.53 171.58C149.028 171.937 145.455 171.852 143.551 170.185C136.063 163.632 139.201 146.062 140.248 137.307C140.817 132.9 141.194 128.457 141.91 124.069C143.533 114.118 146.418 103.251 145.121 93.0823C135.471 98.2703 127.774 121.429 124.076 131.742C123.05 134.605 120.019 146.992 118.535 148.4C117.705 148.7 117.052 148.762 116.174 148.627C115.111 148.462 113.456 147.927 112.926 146.882C112.154 145.357 113.677 138.74 113.897 136.765C114.498 131.377 117.558 104.599 114.85 101.338C114.585 101.019 114.235 101.108 113.852 101.075C112.308 101.647 111.581 102.661 110.688 103.991C101.569 117.554 97.2056 133.827 92.9364 149.422C92.4374 151.245 92.6624 154.877 91.1081 156.192C89.1581 157.844 84.0699 156.667 84.8696 153.277C86.1609 140 87.4419 126.834 87.9746 113.512C80.1916 124.389 71.6741 128.972 58.2609 129.779C52.6734 130.114 44.3186 128.5 40.0744 124.612C37.3791 122.144 37.9436 119.3 40.5246 117.027C40.7124 117.517 40.8351 117.765 40.9379 118.285C38.4721 120.706 39.9051 122.208 42.3134 124.069C47.2679 128.244 58.2996 128.19 64.3951 127.237C73.2491 125.855 84.2174 117.92 87.4929 109.353C88.3256 107.174 88.1694 98.4055 95.7941 102.273C97.3559 103.065 96.3896 110.313 96.2399 112.308C95.8411 118.11 95.3236 123.902 94.6876 129.685C94.5414 130.955 93.2876 138.065 93.8594 138.672C95.4469 134.845 95.9631 130.947 97.5906 126.287C100.002 119.385 114.163 82.4375 123.028 103.314C124.051 105.724 123.476 121.824 123.068 125.812L123.646 126.354Z" fill="#E27B8E"/>
<path d="M123.647 126.355C123.461 127.485 123.441 127.86 123.004 128.895L122.761 128.892C122.551 127.71 122.811 126.987 123.068 125.812L123.647 126.355Z" fill="#F9DEF3"/>
<path d="M153.921 51.7895L199.189 42.6792C204.789 41.5552 210.665 39.7932 216.222 39.0237C216.562 39.7615 216.541 39.4037 216.398 40.118L216.464 40.525C215.951 40.8702 215.49 41.1795 214.955 41.496L211.907 42.788C211.693 41.875 210.937 41.9152 210.089 41.6387L187.28 46.2917C177.768 48.2015 168.178 50.1742 158.656 52.0485C157.652 52.2462 156.309 52.4387 155.305 52.5125C154.32 52.2395 154.509 52.444 153.921 51.7895Z" fill="#D05F6B"/>
<path d="M149.245 52.2365C150.734 52.187 152.424 51.9577 153.922 51.7895C154.509 52.444 154.32 52.2395 155.305 52.5125L154.478 52.8297C154.442 54.1892 163.66 58.54 165.443 59.728L164.433 59.829L163.824 60.64C159.061 57.8245 153.734 55.1995 149.245 52.2365Z" fill="#E27B8E"/>
<path d="M214.955 41.496L215.275 41.8305C214.938 42.3433 214.193 42.6635 213.625 42.9833C205.878 46.7093 197.803 49.8073 189.803 52.9393C182.865 55.6553 174.707 59.503 167.716 61.7173C168.017 66.1038 168.295 71.459 169.046 75.7238C168.62 76.119 168.02 76.6763 167.677 77.1425C167.446 72.309 166.834 66.49 166.322 61.6583L163.823 60.64L164.433 59.829L165.442 59.728C165.733 59.935 166.689 60.612 167.019 60.5405C169.406 59.9973 171.651 58.4173 173.901 57.6523C186.721 53.2935 199.141 47.2273 211.907 42.788L214.955 41.496Z" fill="#D05F6B"/>
<path d="M214.135 43.9255C214.915 43.9202 216.053 43.7985 216.724 44.0322C206.339 49.6252 196.048 55.3923 185.857 61.3308C184.342 62.1975 176.959 66.2112 176.309 66.7667L176.209 67.1832C180.864 71.398 186.355 74.9908 191.379 79.6388C190.696 79.8798 190.509 79.8797 189.99 80.3845C187.872 78.0987 183.303 74.3875 180.51 72.9833C177.375 74.3213 175.602 76.3258 172.68 78.082C172.421 78.379 168.874 80.5478 168.282 80.9193C168.033 79.6095 167.856 78.4625 167.677 77.1425C168.02 76.6763 168.621 76.119 169.046 75.7237L169.335 76.4347L169.665 76.4565L169.949 75.9282C171.331 72.8405 172.374 68.833 173.942 66.207C176.477 65.3025 185.186 59.9355 188.01 58.344L214.135 43.9255Z" fill="#D05F6B"/>
<path d="M169.046 75.7238L169.335 76.4348L169.665 76.4565L169.949 75.9283C170.505 76.6385 170.28 76.4125 171.385 76.6513L171.995 76.5828C172.112 77.1915 172.146 77.6948 172.68 78.082C172.421 78.379 168.874 80.5478 168.282 80.9193C168.033 79.6095 167.856 78.4625 167.677 77.1425C168.02 76.6763 168.621 76.119 169.046 75.7238Z" fill="#E27B8E"/>
<path d="M218.804 46.2075C218.816 47.0078 218.774 47.473 219.02 48.245L200.537 71.4048C198.26 74.2728 193.841 79.4625 192.102 82.3785L189.99 80.3845C190.509 79.8798 190.696 79.8798 191.379 79.6388L191.762 79.7898C192.563 79.5963 196.108 74.8405 196.878 73.8825L218.804 46.2075Z" fill="#E27B8E"/>
<path d="M119.714 71.7295L120.54 71.967C120.861 72.7085 119.986 76.786 119.97 78.7282C124.252 77.7982 128.03 76.786 132.441 76.4167C140.265 75.7617 148.141 76.0498 155.958 75.3158C159.601 74.9735 163.018 73.9447 166.608 73.2842C159.064 78.0347 146.835 76.6515 138.104 77.3175C131.581 77.815 126.454 78.2442 120.031 79.584C120.835 82.2102 122.84 85.1092 123.028 86.7705L122.658 86.709C120.403 84.41 119.794 82.8612 119.042 79.737C114.115 82.0147 110.43 82.7442 105.261 85.7025C99.4517 88.646 94.9019 91.7468 89.6659 95.4583C83.3249 99.9528 73.5212 108.133 66.2212 110.183C69.6324 107.602 74.2599 105.262 77.9084 102.852C84.0594 98.7887 89.9839 93.8385 96.0947 89.869C100.615 86.9325 106.646 83.7462 111.585 81.7027C113.774 80.7967 116.668 79.4407 118.93 78.9852C118.945 76.0452 118.872 74.512 119.714 71.7295Z" fill="#D05F6B"/>
<path d="M216.222 39.0237C220.066 38.3125 224.067 37.685 227.941 37C224.894 41.1887 222.045 44.318 219.021 48.245C218.775 47.473 218.817 47.0077 218.805 46.2075C220.218 44.2315 221.742 42.3082 223.177 40.32C220.616 42.1652 219.633 42.9262 216.724 44.0322C216.053 43.7985 214.915 43.9202 214.135 43.9255L213.625 42.9832C214.193 42.6635 214.938 42.3432 215.276 41.8305L214.955 41.496C215.49 41.1795 215.951 40.8702 216.464 40.525L216.398 40.118C216.541 39.4037 216.562 39.7615 216.222 39.0237Z" fill="#E27B8E"/>
<path d="M62.8266 114.685C64.3309 114.569 67.1146 115.262 68.4134 115.974C74.7609 119.454 66.9989 122.327 63.5494 122.534C59.3626 122.785 55.4716 123.117 51.3276 122.794C48.5919 122.581 45.3514 122.283 45.1724 119.055C45.6924 118.7 46.4064 118.388 46.9836 118.109L47.4179 118.293L47.2529 117.991L47.4841 118.165C46.7079 119.709 47.0736 120.723 48.8286 121.162C52.6871 122.127 68.3084 122.601 69.4694 118.318C68.3946 116.505 64.7916 116.66 62.9506 115.401L62.8266 114.685Z" fill="#D05F6B"/>
<path d="M40.5244 117.027C42.3024 116.148 47.1264 113.727 49.1167 114.573C48.4212 115.274 43.0449 117.087 40.9377 118.285C40.8349 117.765 40.7122 117.517 40.5244 117.027Z" fill="#D05F6B"/>
<path d="M132.438 61.4998C135.435 61.46 136.295 62.8515 137.711 65.121C136.235 64.0413 135.506 63.5753 133.901 62.701C131.35 62.6038 130.308 63.4238 128.181 63.1238L128.201 62.8598C129.992 61.758 130.375 61.8055 132.438 61.4998Z" fill="#D05F6B"/>
<path d="M124.58 87.7263C126.128 88.0453 127.841 89.3573 129.46 89.3043C130.494 89.2705 131.545 88.0793 132.469 88.397L132.576 89.0258C130.399 90.7965 127.46 90.7203 125.111 88.9658C124.548 88.5453 124.589 88.3705 124.58 87.7263Z" fill="#D05F6B"/>
<path d="M134.635 81.9968C135.472 82.1508 135.179 81.9383 135.614 82.5465C135.716 84.2875 135.166 85.451 134.55 87.0553C133.98 86.845 134.148 86.9675 133.781 86.5025C133.685 84.8735 134.043 83.5095 134.635 81.9968Z" fill="#D05F6B"/>
<path d="M125.383 64.5825L125.675 64.7323L125.746 65.0715C124.13 66.4958 123.089 68.3333 121.776 70.0563C121.629 69.9843 121.376 69.7633 121.234 69.6508C121.397 68.0598 124.011 65.379 125.383 64.5825Z" fill="#D05F6B"/>
<path d="M137.837 67.529C138.154 67.6755 138.284 67.7927 138.571 67.993C138.907 69.3975 137.745 71.9398 137.196 73.3665L136.792 73.1642C136.823 71.9015 137.269 68.6595 137.837 67.529Z" fill="#D05F6B"/>
</svg>
