<svg width="383" height="135" viewBox="0 0 383 135" fill="none" xmlns="http://www.w3.org/2000/svg">
<path d="M363.844 57.7155C365.116 57.577 366.601 57.6003 367.854 57.7815C379.866 59.1903 383.791 71.789 381.634 82.3818C376.991 105.182 348.326 117.54 327.021 116.915C323.331 116.922 319.736 117.087 316.084 116.377C302.646 113.765 298.779 105.227 301.276 92.1645C297.636 97.492 294.636 106.547 288.381 109.177C283.214 111.352 281.004 104.477 280.029 100.837C278.934 106.055 271.686 119.78 267.061 122.682C265.714 123.53 264.111 124.01 262.529 123.62C260.901 123.22 259.434 121.972 258.636 120.515C254.864 113.615 261.794 94.902 263.974 87.217C261.859 86.472 260.141 86.052 257.929 85.7915C257.769 86.3045 257.599 86.8095 257.414 87.3145C254.846 94.202 248.099 99.627 241.574 102.657C240.396 104.97 239.911 107.485 238.274 109.597C233.956 115.175 226.821 116.727 221.149 112.017C217.806 109.24 217.169 106.847 216.749 102.645C213.341 108.995 210.724 116.982 205.711 122.24C204.37 123.65 202.684 124.992 200.641 124.97C199.342 124.955 198.136 124.382 197.259 123.435C190.791 116.445 200.945 90.647 201.008 81.1063L201.007 80.7138C195.709 83.8223 190.03 94.237 187.328 99.7495C186.229 101.992 185.397 104.36 184.325 106.615C183.793 107.732 182.941 109.705 181.677 110.077C180.549 110.41 179.042 110 178.041 109.455C174.319 107.422 181.358 86.8145 179.585 82.1883C179.425 81.7703 179.527 81.9073 179.096 81.7353C175.033 84.1645 167.686 101.752 165.894 106.865C164.946 109.157 164.492 112.137 163.155 114.21C162.337 115.475 157.929 114.66 157.546 113.685C156.11 110.027 157.016 102.49 157.451 98.6895C153.105 106.732 140.185 120.91 130.111 113.315C121.517 106.835 125.313 92.6145 130.598 85.0615C133.701 80.6275 141.567 75.9733 147.034 80.0493C153.464 86.152 145.847 96.1395 139.151 98.042C136.439 98.812 135.451 98.857 132.967 98.932C132.849 102.272 132.742 105.11 133.219 108.44C133.787 112.41 137.556 113.447 140.997 112.122C148.444 109.257 154.681 100.657 158.044 93.6195C158.992 91.637 158.69 87.3595 159.893 85.258C160.351 84.4393 161.408 84.3358 162.301 84.1225C168.242 84.4915 166.459 87.4745 166.083 91.402C165.885 93.467 163.78 103.065 164.803 104.032C165.428 103.327 165.26 103.072 165.59 102.34C168.631 95.607 172.807 82.654 179.651 78.9953C180.798 78.382 181.975 78.5095 183.095 78.8535C189.947 80.9573 184.995 96.9395 185.912 98.9095L186.193 98.6945C187.244 94.4845 198.924 72.5643 205.484 78.4775C210.651 83.1345 206.866 91.217 205.896 96.687C205.214 100.517 200.091 119.46 202.857 121.545C206.986 120.815 215.611 99.8495 216.999 95.3495C217.704 93.0595 218.154 91.377 219.646 89.302L219.864 89.0045C218.941 84.4643 220.156 79.108 224.056 76.2705C226.606 74.4338 229.791 73.711 232.886 74.2678C235.976 74.8528 238.696 76.6713 240.416 79.304C244.446 85.4953 243.976 92.9445 242.554 99.8495C246.966 98.0295 250.226 94.852 252.929 90.932C254.224 89.052 255.161 86.9995 256.669 85.254C248.831 81.2603 248.014 74.7165 253.771 68.2618C262.899 65.606 263.199 70.3203 261.659 77.7898C261.306 79.501 260.524 81.0093 259.729 82.5378C262.171 83.5835 269.164 84.9403 270.161 86.0895C272.724 90.522 267.961 98.7195 267.234 102.652C266.536 106.43 262.976 118.297 265.394 120.52C270.069 120.212 278.644 100.357 280.114 95.7995C283.581 85.039 287.024 73.8015 301.006 77.315C301.584 77.925 302.814 79.3868 303.501 79.6265C303.876 79.2225 305.039 77.6918 305.346 77.6353C312.681 76.2983 310.899 81.3963 309.936 85.4633C308.221 91.912 306.234 101.005 308.951 107.375C313.544 118.142 333.726 115.202 342.746 113.247C345.919 112.56 348.544 112.03 351.444 110.827C362.771 106.122 374.029 98.437 378.534 86.542C382.524 76.8175 380.909 64.6608 370.299 60.0115C364.639 57.5318 356.544 60.6878 354.504 66.624C353.431 69.7385 354.156 73.1845 355.644 76.0838C355.876 76.2285 356.111 76.3708 356.346 76.5108C364.126 81.1103 372.124 73.6123 364.676 68.6805C363.804 68.1018 362.024 69.069 361.624 70.1728C361.756 71.278 362.551 71.8745 363.354 72.736L363.269 73.2548L362.864 73.39C357.739 72.0895 360.201 64.8995 367.639 68.2955C368.759 70.764 369.671 73.8985 368.011 76.395C362.976 83.962 353.866 79.6868 352.259 72.0435C351.576 68.792 352.671 65.7875 354.366 63.0573C356.601 59.4925 360.004 58.5305 363.844 57.7155Z" fill="#E27B8E"/>
<path d="M228.894 76.4853C230.216 76.4225 232.254 76.3133 233.509 76.6985C242.941 79.5928 241.641 93.787 239.734 100.91C236.379 101.12 235.146 101.117 231.884 100.255C227.886 98.662 227.319 98.457 225.366 94.6495C226.331 91.717 226.431 91.2895 228.536 89.0295C226.454 85.4965 225.616 85.799 221.684 86.267C222.176 80.883 223.019 77.7523 228.894 76.4853Z" fill="#1E1E1E"/>
<path d="M298.004 79.647C300.921 79.6695 301.079 80.4513 302.371 82.8925C301.254 88.3245 294.566 101.095 290.704 104.98C289.986 105.59 289.506 106.112 288.639 106.12C286.329 104.257 288.081 95.417 288.796 92.682C289.611 89.5595 292.374 84.3965 294.439 81.8433C294.864 81.317 297.296 80.0333 298.004 79.647Z" fill="#1E1E1E"/>
<path d="M224.226 98.027C224.761 98.2795 226.679 99.8595 227.331 100.332C231.569 103.392 234.221 103.49 239.221 103.367C237.946 106.12 237.299 107.12 235.414 109.512C233.111 112.237 229.589 113.932 226.931 110.602C223.959 106.877 223.874 102.547 224.226 98.027Z" fill="#1E1E1E"/>
<path d="M143.94 81.914C144.928 81.927 146.526 82.173 146.762 83.3297C148.432 91.532 142.305 94.362 136.31 96.767C135.539 96.932 134.329 97.3045 133.632 97.092C133.186 95.937 133.664 94.8445 134.177 93.7845C136.563 88.8695 138.926 84.497 143.94 81.914Z" fill="#1E1E1E"/>
<path d="M258.398 70.0378C262.891 69.946 259.171 78.649 258.356 80.6103L258.103 80.813L257.716 80.604C256.743 77.844 256.676 72.4998 258.398 70.0378Z" fill="#1E1E1E"/>
<path d="M19.4655 15.253C21.2987 14.9963 25.4442 14.915 27.1825 15.385C45.486 20.3335 49.8867 37.1748 41.0882 52.787C35.5515 62.6115 30.8417 70.8295 24.3317 79.6615L22.7845 82.041C19.4632 77.694 15.808 71.7843 12.8367 67.163C9.18724 61.487 4.32799 53.7153 1.83774 47.4645C1.06524 45.4955 0.530993 43.4413 0.245993 41.3455C-1.55601 28.6318 6.71249 17.1278 19.4655 15.253Z" fill="#E27B8E"/>
<path d="M21.528 24.416C28.5042 23.7515 34.7325 28.785 35.5467 35.7452C36.361 42.7057 31.4625 49.0405 24.5212 50.0042C19.8965 50.6462 15.2862 48.736 12.471 45.011C9.65573 41.2863 9.07573 36.3298 10.9555 32.0555C12.835 27.7815 16.88 24.8588 21.528 24.416Z" fill="#1E1E1E"/>
<path d="M89.6464 89.3545C89.8126 88.7895 89.9911 88.227 90.2071 87.6795C93.4234 79.5075 101.554 57.4718 110.068 53.9255C111.637 53.272 113.389 53.0573 114.967 53.806C117.638 55.0735 118.659 58.2688 118.997 60.9995C119.779 67.3218 118.285 74.2492 117.324 80.5005C116.593 85.2562 116.197 90.052 115.466 94.7945C114.09 103.715 110.257 120.612 113.187 129.099C113.557 130.172 114.093 131.29 115.187 131.777C118.114 133.085 120.504 129.962 122.982 129.107C123.422 128.955 123.438 129.075 123.836 129.262C123.945 129.715 124.046 130.065 123.624 130.522C121.82 132.485 120.216 134.195 117.53 134.58C115.028 134.937 111.455 134.852 109.551 133.185C102.063 126.632 105.201 109.062 106.248 100.307C106.817 95.8995 107.194 91.457 107.91 87.0695C109.533 77.1177 112.418 66.2513 111.121 56.0823C101.471 61.2703 93.7744 84.4293 90.0759 94.742C89.0501 97.6045 86.0189 109.992 84.5346 111.4C83.7054 111.7 83.0521 111.762 82.1739 111.627C81.1106 111.462 79.4556 110.927 78.9261 109.882C78.1539 108.357 79.6766 101.74 79.8971 99.7645C80.4979 94.377 83.5581 67.5993 80.8499 64.3383C80.5849 64.0193 80.2349 64.108 79.8524 64.0753C78.3076 64.6465 77.5814 65.6613 76.6876 66.991C67.5691 80.5538 63.2056 96.827 58.9364 112.422C58.4374 114.245 58.6624 117.877 57.1081 119.192C55.1581 120.844 50.0699 119.667 50.8696 116.277C52.1609 103 53.4419 89.8345 53.9746 76.5122C46.1916 87.3895 37.6741 91.972 24.2609 92.7795C18.6734 93.1145 10.3186 91.4995 6.07436 87.612C3.37911 85.1438 3.94361 82.2998 6.52461 80.0273C6.71236 80.5173 6.83511 80.765 6.93786 81.2845C4.47211 83.7058 5.90511 85.208 8.31336 87.0695C13.2679 91.2445 24.2996 91.1895 30.3951 90.237C39.2491 88.8545 50.2174 80.9203 53.4929 72.3525C54.3256 70.1743 54.1694 61.4055 61.7941 65.273C63.3559 66.0653 62.3896 73.3133 62.2399 75.3075C61.8411 81.1095 61.3236 86.902 60.6876 92.6845C60.5414 93.9545 59.2876 101.065 59.8594 101.672C61.4469 97.8445 61.9631 93.947 63.5906 89.287C66.0016 82.3855 80.1631 45.4375 89.0281 66.3142C90.0514 68.7237 89.4764 84.8243 89.0679 88.812L89.6464 89.3545Z" fill="#E27B8E"/>
<path d="M89.6465 89.3545C89.461 90.4845 89.4408 90.8595 89.0043 91.8945L88.7608 91.892C88.551 90.7095 88.8108 89.987 89.068 88.812L89.6465 89.3545Z" fill="#F9DEF3"/>
<path d="M119.921 14.7895L165.189 5.67924C170.789 4.55524 176.665 2.79324 182.222 2.02374C182.562 2.76149 182.541 2.40375 182.398 3.118L182.464 3.52499C181.951 3.87024 181.49 4.1795 180.955 4.496L177.907 5.78799C177.693 4.87499 176.937 4.91525 176.089 4.63875L153.28 9.29175C143.768 11.2015 134.178 13.1742 124.656 15.0485C123.652 15.2462 122.309 15.4387 121.305 15.5125C120.32 15.2395 120.509 15.444 119.921 14.7895Z" fill="#D05F6B"/>
<path d="M115.245 15.2365C116.734 15.187 118.424 14.9577 119.922 14.7895C120.509 15.444 120.32 15.2395 121.305 15.5125L120.478 15.8297C120.442 17.1892 129.66 21.54 131.443 22.728L130.433 22.829L129.824 23.64C125.061 20.8245 119.734 18.1995 115.245 15.2365Z" fill="#E27B8E"/>
<path d="M180.955 4.49603L181.275 4.83052C180.938 5.34327 180.193 5.66353 179.625 5.98328C171.878 9.70928 163.803 12.8073 155.803 15.9393C148.865 18.6553 140.707 22.503 133.716 24.7173C134.017 29.1038 134.295 34.459 135.046 38.7238C134.62 39.119 134.02 39.6763 133.677 40.1425C133.446 35.309 132.834 29.49 132.322 24.6583L129.823 23.64L130.433 22.829L131.442 22.728C131.733 22.935 132.689 23.612 133.019 23.5405C135.406 22.9973 137.651 21.4173 139.901 20.6523C152.721 16.2935 165.141 10.2273 177.907 5.78802L180.955 4.49603Z" fill="#D05F6B"/>
<path d="M180.135 6.9255C180.915 6.92025 182.053 6.7985 182.724 7.03225C172.339 12.6252 162.048 18.3923 151.857 24.3308C150.342 25.1975 142.959 29.2112 142.309 29.7667L142.209 30.1832C146.864 34.398 152.355 37.9908 157.379 42.6388C156.696 42.8798 156.509 42.8797 155.99 43.3845C153.872 41.0987 149.303 37.3875 146.51 35.9833C143.375 37.3213 141.602 39.3258 138.68 41.082C138.421 41.379 134.874 43.5478 134.282 43.9193C134.033 42.6095 133.856 41.4625 133.677 40.1425C134.02 39.6763 134.621 39.119 135.046 38.7237L135.335 39.4347L135.665 39.4565L135.949 38.9282C137.331 35.8405 138.374 31.833 139.942 29.207C142.477 28.3025 151.186 22.9355 154.01 21.344L180.135 6.9255Z" fill="#D05F6B"/>
<path d="M135.046 38.7238L135.335 39.4348L135.665 39.4565L135.949 38.9283C136.505 39.6385 136.28 39.4125 137.385 39.6513L137.995 39.5828C138.112 40.1915 138.146 40.6948 138.68 41.082C138.421 41.379 134.874 43.5478 134.282 43.9193C134.033 42.6095 133.856 41.4625 133.677 40.1425C134.02 39.6763 134.621 39.119 135.046 38.7238Z" fill="#E27B8E"/>
<path d="M184.804 9.20752C184.816 10.0078 184.774 10.473 185.02 11.245L166.537 34.4048C164.26 37.2728 159.841 42.4625 158.102 45.3785L155.99 43.3845C156.509 42.8798 156.696 42.8798 157.379 42.6388L157.762 42.7898C158.563 42.5963 162.108 37.8405 162.878 36.8825L184.804 9.20752Z" fill="#E27B8E"/>
<path d="M85.7144 34.7295L86.5402 34.967C86.8615 35.7085 85.9857 39.786 85.9697 41.7282C90.2517 40.7982 94.0304 39.786 98.4407 39.4167C106.265 38.7617 114.141 39.0498 121.958 38.3158C125.601 37.9735 129.018 36.9447 132.608 36.2842C125.064 41.0347 112.835 39.6515 104.104 40.3175C97.5814 40.815 92.4539 41.2442 86.0307 42.584C86.8352 45.2102 88.8399 48.1092 89.0277 49.7705L88.6579 49.709C86.4027 47.41 85.7944 45.8612 85.0424 42.737C80.1152 45.0147 76.4304 45.7442 71.2609 48.7025C65.4517 51.646 60.9019 54.7468 55.6659 58.4583C49.3249 62.9528 39.5212 71.133 32.2212 73.1832C35.6324 70.602 40.2599 68.2617 43.9084 65.8517C50.0594 61.7887 55.9839 56.8385 62.0947 52.869C66.6154 49.9325 72.6459 46.7462 77.5849 44.7027C79.7742 43.7967 82.6682 42.4407 84.9304 41.9852C84.9447 39.0452 84.8722 37.512 85.7144 34.7295Z" fill="#D05F6B"/>
<path d="M182.222 2.02374C186.066 1.31249 190.067 0.685 193.941 0C190.894 4.18875 188.045 7.318 185.021 11.245C184.775 10.473 184.817 10.0077 184.805 9.20749C186.218 7.23149 187.742 5.30824 189.177 3.31999C186.616 5.16524 185.633 5.92624 182.724 7.03224C182.053 6.79849 180.915 6.92024 180.135 6.92549L179.625 5.98325C180.193 5.6635 180.938 5.34324 181.276 4.83049L180.955 4.496C181.49 4.1795 181.951 3.87024 182.464 3.52499L182.398 3.118C182.541 2.40375 182.562 2.76149 182.222 2.02374Z" fill="#E27B8E"/>
<path d="M28.8266 77.6848C30.3309 77.5685 33.1146 78.262 34.4134 78.974C40.7609 82.4535 32.9989 85.3273 29.5494 85.5343C25.3626 85.7853 21.4716 86.117 17.3276 85.7938C14.5919 85.581 11.3514 85.2828 11.1724 82.055C11.6924 81.7 12.4064 81.3883 12.9836 81.1085L13.4179 81.293L13.2529 80.9913L13.4841 81.1648C12.7079 82.709 13.0736 83.7225 14.8286 84.1615C18.6871 85.1268 34.3084 85.6013 35.4694 81.318C34.3946 79.5045 30.7916 79.6598 28.9506 78.4008L28.8266 77.6848Z" fill="#D05F6B"/>
<path d="M6.52441 80.0273C8.30241 79.148 13.1264 76.7265 15.1167 77.5733C14.4212 78.2743 9.04491 80.087 6.93766 81.2845C6.83491 80.765 6.71216 80.5173 6.52441 80.0273Z" fill="#D05F6B"/>
<path d="M98.4384 24.4998C101.435 24.46 102.295 25.8515 103.711 28.121C102.235 27.0413 101.506 26.5753 99.9009 25.701C97.3499 25.6038 96.3084 26.4238 94.1807 26.1238L94.2012 25.8598C95.9919 24.758 96.3754 24.8055 98.4384 24.4998Z" fill="#D05F6B"/>
<path d="M90.5796 50.7263C92.1281 51.0453 93.8411 52.3573 95.4603 52.3043C96.4936 52.2705 97.5453 51.0793 98.4688 51.397L98.5763 52.0258C96.3986 53.7965 93.4603 53.7203 91.1111 51.9658C90.5481 51.5453 90.5893 51.3705 90.5796 50.7263Z" fill="#D05F6B"/>
<path d="M100.635 44.9968C101.472 45.1508 101.179 44.9383 101.614 45.5465C101.716 47.2875 101.166 48.451 100.55 50.0553C99.9803 49.845 100.148 49.9675 99.7806 49.5025C99.6848 47.8735 100.043 46.5095 100.635 44.9968Z" fill="#D05F6B"/>
<path d="M91.3834 27.5825L91.6751 27.7323L91.7459 28.0715C90.1296 29.4958 89.0889 31.3333 87.7759 33.0563C87.6289 32.9843 87.3759 32.7633 87.2344 32.6508C87.3969 31.0598 90.0111 28.379 91.3834 27.5825Z" fill="#D05F6B"/>
<path d="M103.837 30.529C104.154 30.6755 104.284 30.7927 104.571 30.993C104.907 32.3975 103.745 34.9398 103.196 36.3665L102.792 36.1642C102.823 34.9015 103.269 31.6595 103.837 30.529Z" fill="#D05F6B"/>
</svg>
